<mxfile host="app.diagrams.net" agent="Mozilla/5.0 (Macintosh; Intel Mac OS X 10_15_7) AppleWebKit/605.1.15 (KHTML, like Gecko) Version/18.5 Safari/605.1.15" version="28.0.7">
  <diagram name="Pagina-1" id="qcJicmzT6AtfGBGz_v6s">
    <mxGraphModel dx="1317" dy="2299" grid="1" gridSize="10" guides="1" tooltips="1" connect="1" arrows="1" fold="1" page="1" pageScale="1" pageWidth="827" pageHeight="1169" math="0" shadow="0">
      <root>
        <mxCell id="0" />
        <mxCell id="1" parent="0" />
        <mxCell id="ttQ8q_DUYt6OM9fb_UbY-24" style="edgeStyle=orthogonalEdgeStyle;rounded=0;orthogonalLoop=1;jettySize=auto;html=1;entryX=0;entryY=0.5;entryDx=0;entryDy=0;dashed=1;" edge="1" parent="1" source="ttQ8q_DUYt6OM9fb_UbY-1" target="ttQ8q_DUYt6OM9fb_UbY-5">
          <mxGeometry relative="1" as="geometry" />
        </mxCell>
        <mxCell id="ttQ8q_DUYt6OM9fb_UbY-27" value="runtimes" style="edgeLabel;html=1;align=center;verticalAlign=middle;resizable=0;points=[];" vertex="1" connectable="0" parent="ttQ8q_DUYt6OM9fb_UbY-24">
          <mxGeometry x="-0.0925" relative="1" as="geometry">
            <mxPoint as="offset" />
          </mxGeometry>
        </mxCell>
        <mxCell id="ttQ8q_DUYt6OM9fb_UbY-1" value="SpyModel" style="swimlane;fontStyle=2;childLayout=stackLayout;horizontal=1;startSize=26;fillColor=#e1d5e7;horizontalStack=0;resizeParent=1;resizeParentMax=0;resizeLast=0;collapsible=1;marginBottom=0;whiteSpace=wrap;html=1;strokeColor=#9673a6;" vertex="1" parent="1">
          <mxGeometry x="40" y="60" width="140" height="50" as="geometry" />
        </mxCell>
        <mxCell id="ttQ8q_DUYt6OM9fb_UbY-5" value="Runtime" style="swimlane;fontStyle=2;childLayout=stackLayout;horizontal=1;startSize=26;fillColor=#e1d5e7;horizontalStack=0;resizeParent=1;resizeParentMax=0;resizeLast=0;collapsible=1;marginBottom=0;whiteSpace=wrap;html=1;strokeColor=#9673a6;" vertex="1" parent="1">
          <mxGeometry x="274" y="60" width="140" height="50" as="geometry" />
        </mxCell>
        <mxCell id="ttQ8q_DUYt6OM9fb_UbY-15" value="" style="shape=table;startSize=0;container=1;collapsible=0;childLayout=tableLayout;" vertex="1" parent="ttQ8q_DUYt6OM9fb_UbY-5">
          <mxGeometry y="26" width="140" height="24" as="geometry" />
        </mxCell>
        <mxCell id="ttQ8q_DUYt6OM9fb_UbY-16" value="" style="shape=tableRow;horizontal=0;startSize=0;swimlaneHead=0;swimlaneBody=0;strokeColor=inherit;top=0;left=0;bottom=0;right=0;collapsible=0;dropTarget=0;fillColor=none;points=[[0,0.5],[1,0.5]];portConstraint=eastwest;" vertex="1" parent="ttQ8q_DUYt6OM9fb_UbY-15">
          <mxGeometry width="140" height="24" as="geometry" />
        </mxCell>
        <mxCell id="ttQ8q_DUYt6OM9fb_UbY-17" value="str" style="shape=partialRectangle;html=1;whiteSpace=wrap;connectable=0;strokeColor=inherit;overflow=hidden;fillColor=none;top=0;left=0;bottom=0;right=0;pointerEvents=1;" vertex="1" parent="ttQ8q_DUYt6OM9fb_UbY-16">
          <mxGeometry width="26" height="24" as="geometry">
            <mxRectangle width="26" height="24" as="alternateBounds" />
          </mxGeometry>
        </mxCell>
        <mxCell id="ttQ8q_DUYt6OM9fb_UbY-18" value="CPU Architecture" style="shape=partialRectangle;html=1;whiteSpace=wrap;connectable=0;strokeColor=inherit;overflow=hidden;fillColor=none;top=0;left=0;bottom=0;right=0;pointerEvents=1;" vertex="1" parent="ttQ8q_DUYt6OM9fb_UbY-16">
          <mxGeometry x="26" width="114" height="24" as="geometry">
            <mxRectangle width="114" height="24" as="alternateBounds" />
          </mxGeometry>
        </mxCell>
        <mxCell id="ttQ8q_DUYt6OM9fb_UbY-28" value="1" style="text;align=center;fontStyle=1;verticalAlign=middle;spacingLeft=3;spacingRight=3;strokeColor=none;rotatable=0;points=[[0,0.5],[1,0.5]];portConstraint=eastwest;html=1;fontSize=10;" vertex="1" parent="1">
          <mxGeometry x="185" y="70" width="10" height="10" as="geometry" />
        </mxCell>
        <mxCell id="ttQ8q_DUYt6OM9fb_UbY-29" value="*" style="text;align=center;fontStyle=1;verticalAlign=middle;spacingLeft=3;spacingRight=3;strokeColor=none;rotatable=0;points=[[0,0.5],[1,0.5]];portConstraint=eastwest;html=1;" vertex="1" parent="1">
          <mxGeometry x="250" y="71" width="10" height="10" as="geometry" />
        </mxCell>
        <mxCell id="ttQ8q_DUYt6OM9fb_UbY-44" style="edgeStyle=orthogonalEdgeStyle;rounded=0;orthogonalLoop=1;jettySize=auto;html=1;entryX=0;entryY=0.5;entryDx=0;entryDy=0;dashed=1;" edge="1" parent="1" source="ttQ8q_DUYt6OM9fb_UbY-30" target="ttQ8q_DUYt6OM9fb_UbY-35">
          <mxGeometry relative="1" as="geometry" />
        </mxCell>
        <mxCell id="ttQ8q_DUYt6OM9fb_UbY-30" value="System" style="swimlane;fontStyle=2;childLayout=stackLayout;horizontal=1;startSize=26;fillColor=#e1d5e7;horizontalStack=0;resizeParent=1;resizeParentMax=0;resizeLast=0;collapsible=1;marginBottom=0;whiteSpace=wrap;html=1;strokeColor=#9673a6;" vertex="1" parent="1">
          <mxGeometry x="274" y="179" width="140" height="50" as="geometry" />
        </mxCell>
        <mxCell id="ttQ8q_DUYt6OM9fb_UbY-31" value="" style="shape=table;startSize=0;container=1;collapsible=0;childLayout=tableLayout;" vertex="1" parent="ttQ8q_DUYt6OM9fb_UbY-30">
          <mxGeometry y="26" width="140" height="24" as="geometry" />
        </mxCell>
        <mxCell id="ttQ8q_DUYt6OM9fb_UbY-32" value="" style="shape=tableRow;horizontal=0;startSize=0;swimlaneHead=0;swimlaneBody=0;strokeColor=inherit;top=0;left=0;bottom=0;right=0;collapsible=0;dropTarget=0;fillColor=none;points=[[0,0.5],[1,0.5]];portConstraint=eastwest;" vertex="1" parent="ttQ8q_DUYt6OM9fb_UbY-31">
          <mxGeometry width="140" height="24" as="geometry" />
        </mxCell>
        <mxCell id="ttQ8q_DUYt6OM9fb_UbY-33" value="str" style="shape=partialRectangle;html=1;whiteSpace=wrap;connectable=0;strokeColor=inherit;overflow=hidden;fillColor=none;top=0;left=0;bottom=0;right=0;pointerEvents=1;" vertex="1" parent="ttQ8q_DUYt6OM9fb_UbY-32">
          <mxGeometry width="26" height="24" as="geometry">
            <mxRectangle width="26" height="24" as="alternateBounds" />
          </mxGeometry>
        </mxCell>
        <mxCell id="ttQ8q_DUYt6OM9fb_UbY-34" value="Operating system" style="shape=partialRectangle;html=1;whiteSpace=wrap;connectable=0;strokeColor=inherit;overflow=hidden;fillColor=none;top=0;left=0;bottom=0;right=0;pointerEvents=1;" vertex="1" parent="ttQ8q_DUYt6OM9fb_UbY-32">
          <mxGeometry x="26" width="114" height="24" as="geometry">
            <mxRectangle width="114" height="24" as="alternateBounds" />
          </mxGeometry>
        </mxCell>
        <mxCell id="ttQ8q_DUYt6OM9fb_UbY-35" value="Environment" style="swimlane;fontStyle=2;childLayout=stackLayout;horizontal=1;startSize=26;fillColor=#e1d5e7;horizontalStack=0;resizeParent=1;resizeParentMax=0;resizeLast=0;collapsible=1;marginBottom=0;whiteSpace=wrap;html=1;strokeColor=#9673a6;" vertex="1" parent="1">
          <mxGeometry x="516" y="179" width="140" height="50" as="geometry" />
        </mxCell>
        <mxCell id="ttQ8q_DUYt6OM9fb_UbY-36" value="" style="shape=table;startSize=0;container=1;collapsible=0;childLayout=tableLayout;" vertex="1" parent="ttQ8q_DUYt6OM9fb_UbY-35">
          <mxGeometry y="26" width="140" height="24" as="geometry" />
        </mxCell>
        <mxCell id="ttQ8q_DUYt6OM9fb_UbY-37" value="" style="shape=tableRow;horizontal=0;startSize=0;swimlaneHead=0;swimlaneBody=0;strokeColor=inherit;top=0;left=0;bottom=0;right=0;collapsible=0;dropTarget=0;fillColor=none;points=[[0,0.5],[1,0.5]];portConstraint=eastwest;" vertex="1" parent="ttQ8q_DUYt6OM9fb_UbY-36">
          <mxGeometry width="140" height="24" as="geometry" />
        </mxCell>
        <mxCell id="ttQ8q_DUYt6OM9fb_UbY-38" value="list[str]" style="shape=partialRectangle;html=1;whiteSpace=wrap;connectable=0;strokeColor=inherit;overflow=hidden;fillColor=none;top=0;left=0;bottom=0;right=0;pointerEvents=1;" vertex="1" parent="ttQ8q_DUYt6OM9fb_UbY-37">
          <mxGeometry width="40" height="24" as="geometry">
            <mxRectangle width="40" height="24" as="alternateBounds" />
          </mxGeometry>
        </mxCell>
        <mxCell id="ttQ8q_DUYt6OM9fb_UbY-39" value="secrets" style="shape=partialRectangle;html=1;whiteSpace=wrap;connectable=0;strokeColor=inherit;overflow=hidden;fillColor=none;top=0;left=0;bottom=0;right=0;pointerEvents=1;" vertex="1" parent="ttQ8q_DUYt6OM9fb_UbY-37">
          <mxGeometry x="40" width="100" height="24" as="geometry">
            <mxRectangle width="100" height="24" as="alternateBounds" />
          </mxGeometry>
        </mxCell>
        <mxCell id="ttQ8q_DUYt6OM9fb_UbY-40" value="systems" style="edgeStyle=orthogonalEdgeStyle;rounded=0;orthogonalLoop=1;jettySize=auto;html=1;entryX=0.5;entryY=0;entryDx=0;entryDy=0;dashed=1;" edge="1" parent="1" source="ttQ8q_DUYt6OM9fb_UbY-15" target="ttQ8q_DUYt6OM9fb_UbY-30">
          <mxGeometry relative="1" as="geometry" />
        </mxCell>
        <mxCell id="ttQ8q_DUYt6OM9fb_UbY-42" value="1" style="text;align=center;fontStyle=1;verticalAlign=middle;spacingLeft=3;spacingRight=3;strokeColor=none;rotatable=0;points=[[0,0.5],[1,0.5]];portConstraint=eastwest;html=1;fontSize=10;" vertex="1" parent="1">
          <mxGeometry x="347" y="114" width="10" height="10" as="geometry" />
        </mxCell>
        <mxCell id="ttQ8q_DUYt6OM9fb_UbY-43" value="*" style="text;align=center;fontStyle=1;verticalAlign=middle;spacingLeft=3;spacingRight=3;strokeColor=none;rotatable=0;points=[[0,0.5],[1,0.5]];portConstraint=eastwest;html=1;" vertex="1" parent="1">
          <mxGeometry x="347" y="164" width="10" height="10" as="geometry" />
        </mxCell>
        <mxCell id="ttQ8q_DUYt6OM9fb_UbY-45" value="1" style="text;align=center;fontStyle=1;verticalAlign=middle;spacingLeft=3;spacingRight=3;strokeColor=none;rotatable=0;points=[[0,0.5],[1,0.5]];portConstraint=eastwest;html=1;fontSize=10;" vertex="1" parent="1">
          <mxGeometry x="414" y="193" width="10" height="10" as="geometry" />
        </mxCell>
        <mxCell id="ttQ8q_DUYt6OM9fb_UbY-46" value="1" style="text;align=center;fontStyle=1;verticalAlign=middle;spacingLeft=3;spacingRight=3;strokeColor=none;rotatable=0;points=[[0,0.5],[1,0.5]];portConstraint=eastwest;html=1;fontSize=10;" vertex="1" parent="1">
          <mxGeometry x="495" y="193" width="10" height="10" as="geometry" />
        </mxCell>
        <mxCell id="ttQ8q_DUYt6OM9fb_UbY-51" value="Python" style="swimlane;fontStyle=2;childLayout=stackLayout;horizontal=1;startSize=26;fillColor=#e1d5e7;horizontalStack=0;resizeParent=1;resizeParentMax=0;resizeLast=0;collapsible=1;marginBottom=0;whiteSpace=wrap;html=1;strokeColor=#9673a6;" vertex="1" parent="1">
          <mxGeometry x="274" y="296" width="140" height="74" as="geometry" />
        </mxCell>
        <mxCell id="ttQ8q_DUYt6OM9fb_UbY-52" value="" style="shape=table;startSize=0;container=1;collapsible=0;childLayout=tableLayout;" vertex="1" parent="ttQ8q_DUYt6OM9fb_UbY-51">
          <mxGeometry y="26" width="140" height="48" as="geometry" />
        </mxCell>
        <mxCell id="ttQ8q_DUYt6OM9fb_UbY-53" value="" style="shape=tableRow;horizontal=0;startSize=0;swimlaneHead=0;swimlaneBody=0;strokeColor=inherit;top=0;left=0;bottom=0;right=0;collapsible=0;dropTarget=0;fillColor=none;points=[[0,0.5],[1,0.5]];portConstraint=eastwest;" vertex="1" parent="ttQ8q_DUYt6OM9fb_UbY-52">
          <mxGeometry width="140" height="24" as="geometry" />
        </mxCell>
        <mxCell id="ttQ8q_DUYt6OM9fb_UbY-54" value="str" style="shape=partialRectangle;html=1;whiteSpace=wrap;connectable=0;strokeColor=inherit;overflow=hidden;fillColor=none;top=0;left=0;bottom=0;right=0;pointerEvents=1;" vertex="1" parent="ttQ8q_DUYt6OM9fb_UbY-53">
          <mxGeometry width="26" height="24" as="geometry">
            <mxRectangle width="26" height="24" as="alternateBounds" />
          </mxGeometry>
        </mxCell>
        <mxCell id="ttQ8q_DUYt6OM9fb_UbY-55" value="Version" style="shape=partialRectangle;html=1;whiteSpace=wrap;connectable=0;strokeColor=inherit;overflow=hidden;fillColor=none;top=0;left=0;bottom=0;right=0;pointerEvents=1;" vertex="1" parent="ttQ8q_DUYt6OM9fb_UbY-53">
          <mxGeometry x="26" width="114" height="24" as="geometry">
            <mxRectangle width="114" height="24" as="alternateBounds" />
          </mxGeometry>
        </mxCell>
        <mxCell id="ttQ8q_DUYt6OM9fb_UbY-59" value="" style="shape=tableRow;horizontal=0;startSize=0;swimlaneHead=0;swimlaneBody=0;strokeColor=inherit;top=0;left=0;bottom=0;right=0;collapsible=0;dropTarget=0;fillColor=none;points=[[0,0.5],[1,0.5]];portConstraint=eastwest;" vertex="1" parent="ttQ8q_DUYt6OM9fb_UbY-52">
          <mxGeometry y="24" width="140" height="24" as="geometry" />
        </mxCell>
        <mxCell id="ttQ8q_DUYt6OM9fb_UbY-60" value="str" style="shape=partialRectangle;html=1;whiteSpace=wrap;connectable=0;strokeColor=inherit;overflow=hidden;fillColor=none;top=0;left=0;bottom=0;right=0;pointerEvents=1;" vertex="1" parent="ttQ8q_DUYt6OM9fb_UbY-59">
          <mxGeometry width="26" height="24" as="geometry">
            <mxRectangle width="26" height="24" as="alternateBounds" />
          </mxGeometry>
        </mxCell>
        <mxCell id="ttQ8q_DUYt6OM9fb_UbY-61" value="Interpreter" style="shape=partialRectangle;html=1;whiteSpace=wrap;connectable=0;strokeColor=inherit;overflow=hidden;fillColor=none;top=0;left=0;bottom=0;right=0;pointerEvents=1;" vertex="1" parent="ttQ8q_DUYt6OM9fb_UbY-59">
          <mxGeometry x="26" width="114" height="24" as="geometry">
            <mxRectangle width="114" height="24" as="alternateBounds" />
          </mxGeometry>
        </mxCell>
        <mxCell id="ttQ8q_DUYt6OM9fb_UbY-62" style="edgeStyle=orthogonalEdgeStyle;rounded=0;orthogonalLoop=1;jettySize=auto;html=1;entryX=0.5;entryY=0;entryDx=0;entryDy=0;dashed=1;" edge="1" parent="1" source="ttQ8q_DUYt6OM9fb_UbY-31" target="ttQ8q_DUYt6OM9fb_UbY-51">
          <mxGeometry relative="1" as="geometry" />
        </mxCell>
        <mxCell id="ttQ8q_DUYt6OM9fb_UbY-63" value="pythons" style="edgeLabel;html=1;align=center;verticalAlign=middle;resizable=0;points=[];" vertex="1" connectable="0" parent="ttQ8q_DUYt6OM9fb_UbY-62">
          <mxGeometry x="-0.0423" y="3" relative="1" as="geometry">
            <mxPoint as="offset" />
          </mxGeometry>
        </mxCell>
        <mxCell id="ttQ8q_DUYt6OM9fb_UbY-64" value="1" style="text;align=center;fontStyle=1;verticalAlign=middle;spacingLeft=3;spacingRight=3;strokeColor=none;rotatable=0;points=[[0,0.5],[1,0.5]];portConstraint=eastwest;html=1;fontSize=10;" vertex="1" parent="1">
          <mxGeometry x="347" y="232" width="10" height="10" as="geometry" />
        </mxCell>
        <mxCell id="ttQ8q_DUYt6OM9fb_UbY-65" value="*" style="text;align=center;fontStyle=1;verticalAlign=middle;spacingLeft=3;spacingRight=3;strokeColor=none;rotatable=0;points=[[0,0.5],[1,0.5]];portConstraint=eastwest;html=1;" vertex="1" parent="1">
          <mxGeometry x="347" y="280" width="10" height="10" as="geometry" />
        </mxCell>
        <mxCell id="ttQ8q_DUYt6OM9fb_UbY-66" value="Module" style="swimlane;fontStyle=2;childLayout=stackLayout;horizontal=1;startSize=26;fillColor=#e1d5e7;horizontalStack=0;resizeParent=1;resizeParentMax=0;resizeLast=0;collapsible=1;marginBottom=0;whiteSpace=wrap;html=1;strokeColor=#9673a6;" vertex="1" parent="1">
          <mxGeometry x="518" y="296" width="140" height="74" as="geometry" />
        </mxCell>
        <mxCell id="ttQ8q_DUYt6OM9fb_UbY-67" value="" style="shape=table;startSize=0;container=1;collapsible=0;childLayout=tableLayout;" vertex="1" parent="ttQ8q_DUYt6OM9fb_UbY-66">
          <mxGeometry y="26" width="140" height="48" as="geometry" />
        </mxCell>
        <mxCell id="ttQ8q_DUYt6OM9fb_UbY-68" value="" style="shape=tableRow;horizontal=0;startSize=0;swimlaneHead=0;swimlaneBody=0;strokeColor=inherit;top=0;left=0;bottom=0;right=0;collapsible=0;dropTarget=0;fillColor=none;points=[[0,0.5],[1,0.5]];portConstraint=eastwest;" vertex="1" parent="ttQ8q_DUYt6OM9fb_UbY-67">
          <mxGeometry width="140" height="24" as="geometry" />
        </mxCell>
        <mxCell id="ttQ8q_DUYt6OM9fb_UbY-69" value="str" style="shape=partialRectangle;html=1;whiteSpace=wrap;connectable=0;strokeColor=inherit;overflow=hidden;fillColor=none;top=0;left=0;bottom=0;right=0;pointerEvents=1;" vertex="1" parent="ttQ8q_DUYt6OM9fb_UbY-68">
          <mxGeometry width="26" height="24" as="geometry">
            <mxRectangle width="26" height="24" as="alternateBounds" />
          </mxGeometry>
        </mxCell>
        <mxCell id="ttQ8q_DUYt6OM9fb_UbY-70" value="Filename" style="shape=partialRectangle;html=1;whiteSpace=wrap;connectable=0;strokeColor=inherit;overflow=hidden;fillColor=none;top=0;left=0;bottom=0;right=0;pointerEvents=1;" vertex="1" parent="ttQ8q_DUYt6OM9fb_UbY-68">
          <mxGeometry x="26" width="114" height="24" as="geometry">
            <mxRectangle width="114" height="24" as="alternateBounds" />
          </mxGeometry>
        </mxCell>
        <mxCell id="ttQ8q_DUYt6OM9fb_UbY-71" value="" style="shape=tableRow;horizontal=0;startSize=0;swimlaneHead=0;swimlaneBody=0;strokeColor=inherit;top=0;left=0;bottom=0;right=0;collapsible=0;dropTarget=0;fillColor=none;points=[[0,0.5],[1,0.5]];portConstraint=eastwest;" vertex="1" parent="ttQ8q_DUYt6OM9fb_UbY-67">
          <mxGeometry y="24" width="140" height="24" as="geometry" />
        </mxCell>
        <mxCell id="ttQ8q_DUYt6OM9fb_UbY-72" value="str" style="shape=partialRectangle;html=1;whiteSpace=wrap;connectable=0;strokeColor=inherit;overflow=hidden;fillColor=none;top=0;left=0;bottom=0;right=0;pointerEvents=1;" vertex="1" parent="ttQ8q_DUYt6OM9fb_UbY-71">
          <mxGeometry width="26" height="24" as="geometry">
            <mxRectangle width="26" height="24" as="alternateBounds" />
          </mxGeometry>
        </mxCell>
        <mxCell id="ttQ8q_DUYt6OM9fb_UbY-73" value="Version" style="shape=partialRectangle;html=1;whiteSpace=wrap;connectable=0;strokeColor=inherit;overflow=hidden;fillColor=none;top=0;left=0;bottom=0;right=0;pointerEvents=1;" vertex="1" parent="ttQ8q_DUYt6OM9fb_UbY-71">
          <mxGeometry x="26" width="114" height="24" as="geometry">
            <mxRectangle width="114" height="24" as="alternateBounds" />
          </mxGeometry>
        </mxCell>
        <mxCell id="ttQ8q_DUYt6OM9fb_UbY-74" style="edgeStyle=orthogonalEdgeStyle;rounded=0;orthogonalLoop=1;jettySize=auto;html=1;entryX=0;entryY=0.5;entryDx=0;entryDy=0;dashed=1;" edge="1" parent="1" source="ttQ8q_DUYt6OM9fb_UbY-53" target="ttQ8q_DUYt6OM9fb_UbY-68">
          <mxGeometry relative="1" as="geometry" />
        </mxCell>
        <mxCell id="ttQ8q_DUYt6OM9fb_UbY-75" value="modules" style="edgeLabel;html=1;align=center;verticalAlign=middle;resizable=0;points=[];" vertex="1" connectable="0" parent="ttQ8q_DUYt6OM9fb_UbY-74">
          <mxGeometry x="-0.1061" y="1" relative="1" as="geometry">
            <mxPoint as="offset" />
          </mxGeometry>
        </mxCell>
        <mxCell id="ttQ8q_DUYt6OM9fb_UbY-76" value="1" style="text;align=center;fontStyle=1;verticalAlign=middle;spacingLeft=3;spacingRight=3;strokeColor=none;rotatable=0;points=[[0,0.5],[1,0.5]];portConstraint=eastwest;html=1;fontSize=10;" vertex="1" parent="1">
          <mxGeometry x="415" y="322" width="10" height="10" as="geometry" />
        </mxCell>
        <mxCell id="ttQ8q_DUYt6OM9fb_UbY-77" value="*" style="text;align=center;fontStyle=1;verticalAlign=middle;spacingLeft=3;spacingRight=3;strokeColor=none;rotatable=0;points=[[0,0.5],[1,0.5]];portConstraint=eastwest;html=1;" vertex="1" parent="1">
          <mxGeometry x="496" y="323" width="10" height="10" as="geometry" />
        </mxCell>
        <mxCell id="ttQ8q_DUYt6OM9fb_UbY-78" value="Variable" style="swimlane;fontStyle=2;childLayout=stackLayout;horizontal=1;startSize=26;fillColor=#e1d5e7;horizontalStack=0;resizeParent=1;resizeParentMax=0;resizeLast=0;collapsible=1;marginBottom=0;whiteSpace=wrap;html=1;strokeColor=#9673a6;" vertex="1" parent="1">
          <mxGeometry x="741" y="157" width="140" height="98" as="geometry" />
        </mxCell>
        <mxCell id="ttQ8q_DUYt6OM9fb_UbY-79" value="" style="shape=table;startSize=0;container=1;collapsible=0;childLayout=tableLayout;" vertex="1" parent="ttQ8q_DUYt6OM9fb_UbY-78">
          <mxGeometry y="26" width="140" height="72" as="geometry" />
        </mxCell>
        <mxCell id="ttQ8q_DUYt6OM9fb_UbY-80" value="" style="shape=tableRow;horizontal=0;startSize=0;swimlaneHead=0;swimlaneBody=0;strokeColor=inherit;top=0;left=0;bottom=0;right=0;collapsible=0;dropTarget=0;fillColor=none;points=[[0,0.5],[1,0.5]];portConstraint=eastwest;" vertex="1" parent="ttQ8q_DUYt6OM9fb_UbY-79">
          <mxGeometry width="140" height="24" as="geometry" />
        </mxCell>
        <mxCell id="ttQ8q_DUYt6OM9fb_UbY-81" value="str" style="shape=partialRectangle;html=1;whiteSpace=wrap;connectable=0;strokeColor=inherit;overflow=hidden;fillColor=none;top=0;left=0;bottom=0;right=0;pointerEvents=1;" vertex="1" parent="ttQ8q_DUYt6OM9fb_UbY-80">
          <mxGeometry width="26" height="24" as="geometry">
            <mxRectangle width="26" height="24" as="alternateBounds" />
          </mxGeometry>
        </mxCell>
        <mxCell id="ttQ8q_DUYt6OM9fb_UbY-82" value="Name" style="shape=partialRectangle;html=1;whiteSpace=wrap;connectable=0;strokeColor=inherit;overflow=hidden;fillColor=none;top=0;left=0;bottom=0;right=0;pointerEvents=1;" vertex="1" parent="ttQ8q_DUYt6OM9fb_UbY-80">
          <mxGeometry x="26" width="114" height="24" as="geometry">
            <mxRectangle width="114" height="24" as="alternateBounds" />
          </mxGeometry>
        </mxCell>
        <mxCell id="ttQ8q_DUYt6OM9fb_UbY-83" value="" style="shape=tableRow;horizontal=0;startSize=0;swimlaneHead=0;swimlaneBody=0;strokeColor=inherit;top=0;left=0;bottom=0;right=0;collapsible=0;dropTarget=0;fillColor=none;points=[[0,0.5],[1,0.5]];portConstraint=eastwest;" vertex="1" parent="ttQ8q_DUYt6OM9fb_UbY-79">
          <mxGeometry y="24" width="140" height="24" as="geometry" />
        </mxCell>
        <mxCell id="ttQ8q_DUYt6OM9fb_UbY-84" value="str" style="shape=partialRectangle;html=1;whiteSpace=wrap;connectable=0;strokeColor=inherit;overflow=hidden;fillColor=none;top=0;left=0;bottom=0;right=0;pointerEvents=1;" vertex="1" parent="ttQ8q_DUYt6OM9fb_UbY-83">
          <mxGeometry width="26" height="24" as="geometry">
            <mxRectangle width="26" height="24" as="alternateBounds" />
          </mxGeometry>
        </mxCell>
        <mxCell id="ttQ8q_DUYt6OM9fb_UbY-85" value="Value" style="shape=partialRectangle;html=1;whiteSpace=wrap;connectable=0;strokeColor=inherit;overflow=hidden;fillColor=none;top=0;left=0;bottom=0;right=0;pointerEvents=1;" vertex="1" parent="ttQ8q_DUYt6OM9fb_UbY-83">
          <mxGeometry x="26" width="114" height="24" as="geometry">
            <mxRectangle width="114" height="24" as="alternateBounds" />
          </mxGeometry>
        </mxCell>
        <mxCell id="ttQ8q_DUYt6OM9fb_UbY-112" value="" style="shape=tableRow;horizontal=0;startSize=0;swimlaneHead=0;swimlaneBody=0;strokeColor=inherit;top=0;left=0;bottom=0;right=0;collapsible=0;dropTarget=0;fillColor=none;points=[[0,0.5],[1,0.5]];portConstraint=eastwest;" vertex="1" parent="ttQ8q_DUYt6OM9fb_UbY-79">
          <mxGeometry y="48" width="140" height="24" as="geometry" />
        </mxCell>
        <mxCell id="ttQ8q_DUYt6OM9fb_UbY-113" value="str" style="shape=partialRectangle;html=1;whiteSpace=wrap;connectable=0;strokeColor=inherit;overflow=hidden;fillColor=none;top=0;left=0;bottom=0;right=0;pointerEvents=1;" vertex="1" parent="ttQ8q_DUYt6OM9fb_UbY-112">
          <mxGeometry width="26" height="24" as="geometry">
            <mxRectangle width="26" height="24" as="alternateBounds" />
          </mxGeometry>
        </mxCell>
        <mxCell id="ttQ8q_DUYt6OM9fb_UbY-114" value="Annotation" style="shape=partialRectangle;html=1;whiteSpace=wrap;connectable=0;strokeColor=inherit;overflow=hidden;fillColor=none;top=0;left=0;bottom=0;right=0;pointerEvents=1;" vertex="1" parent="ttQ8q_DUYt6OM9fb_UbY-112">
          <mxGeometry x="26" width="114" height="24" as="geometry">
            <mxRectangle width="114" height="24" as="alternateBounds" />
          </mxGeometry>
        </mxCell>
        <mxCell id="ttQ8q_DUYt6OM9fb_UbY-116" value="variables" style="edgeStyle=orthogonalEdgeStyle;rounded=0;orthogonalLoop=1;jettySize=auto;html=1;entryX=0.007;entryY=-0.125;entryDx=0;entryDy=0;entryPerimeter=0;dashed=1;" edge="1" parent="1" source="ttQ8q_DUYt6OM9fb_UbY-35" target="ttQ8q_DUYt6OM9fb_UbY-83">
          <mxGeometry relative="1" as="geometry" />
        </mxCell>
        <mxCell id="ttQ8q_DUYt6OM9fb_UbY-117" value="1" style="text;align=center;fontStyle=1;verticalAlign=middle;spacingLeft=3;spacingRight=3;strokeColor=none;rotatable=0;points=[[0,0.5],[1,0.5]];portConstraint=eastwest;html=1;fontSize=10;" vertex="1" parent="1">
          <mxGeometry x="658" y="193" width="10" height="10" as="geometry" />
        </mxCell>
        <mxCell id="ttQ8q_DUYt6OM9fb_UbY-118" value="*" style="text;align=center;fontStyle=1;verticalAlign=middle;spacingLeft=3;spacingRight=3;strokeColor=none;rotatable=0;points=[[0,0.5],[1,0.5]];portConstraint=eastwest;html=1;" vertex="1" parent="1">
          <mxGeometry x="721" y="194" width="10" height="10" as="geometry" />
        </mxCell>
        <mxCell id="ttQ8q_DUYt6OM9fb_UbY-119" style="edgeStyle=orthogonalEdgeStyle;rounded=0;orthogonalLoop=1;jettySize=auto;html=1;dashed=1;entryX=0.628;entryY=1.009;entryDx=0;entryDy=0;entryPerimeter=0;" edge="1" parent="1" target="ttQ8q_DUYt6OM9fb_UbY-79">
          <mxGeometry relative="1" as="geometry">
            <mxPoint x="658" y="322" as="sourcePoint" />
            <mxPoint x="829" y="260" as="targetPoint" />
          </mxGeometry>
        </mxCell>
        <mxCell id="ttQ8q_DUYt6OM9fb_UbY-121" value="variables" style="edgeLabel;html=1;align=center;verticalAlign=middle;resizable=0;points=[];" vertex="1" connectable="0" parent="ttQ8q_DUYt6OM9fb_UbY-119">
          <mxGeometry x="-0.2911" y="2" relative="1" as="geometry">
            <mxPoint as="offset" />
          </mxGeometry>
        </mxCell>
        <mxCell id="ttQ8q_DUYt6OM9fb_UbY-122" value="1" style="text;align=center;fontStyle=1;verticalAlign=middle;spacingLeft=3;spacingRight=3;strokeColor=none;rotatable=0;points=[[0,0.5],[1,0.5]];portConstraint=eastwest;html=1;fontSize=10;" vertex="1" parent="1">
          <mxGeometry x="658" y="310" width="10" height="10" as="geometry" />
        </mxCell>
        <mxCell id="ttQ8q_DUYt6OM9fb_UbY-123" value="*" style="text;align=center;fontStyle=1;verticalAlign=middle;spacingLeft=3;spacingRight=3;strokeColor=none;rotatable=0;points=[[0,0.5],[1,0.5]];portConstraint=eastwest;html=1;" vertex="1" parent="1">
          <mxGeometry x="817" y="310" width="10" height="10" as="geometry" />
        </mxCell>
        <mxCell id="ttQ8q_DUYt6OM9fb_UbY-124" value="Function" style="swimlane;fontStyle=2;childLayout=stackLayout;horizontal=1;startSize=26;fillColor=#e1d5e7;horizontalStack=0;resizeParent=1;resizeParentMax=0;resizeLast=0;collapsible=1;marginBottom=0;whiteSpace=wrap;html=1;strokeColor=#9673a6;" vertex="1" parent="1">
          <mxGeometry x="920" y="-14" width="140" height="74" as="geometry" />
        </mxCell>
        <mxCell id="ttQ8q_DUYt6OM9fb_UbY-125" value="" style="shape=table;startSize=0;container=1;collapsible=0;childLayout=tableLayout;" vertex="1" parent="ttQ8q_DUYt6OM9fb_UbY-124">
          <mxGeometry y="26" width="140" height="48" as="geometry" />
        </mxCell>
        <mxCell id="ttQ8q_DUYt6OM9fb_UbY-126" value="" style="shape=tableRow;horizontal=0;startSize=0;swimlaneHead=0;swimlaneBody=0;strokeColor=inherit;top=0;left=0;bottom=0;right=0;collapsible=0;dropTarget=0;fillColor=none;points=[[0,0.5],[1,0.5]];portConstraint=eastwest;" vertex="1" parent="ttQ8q_DUYt6OM9fb_UbY-125">
          <mxGeometry width="140" height="24" as="geometry" />
        </mxCell>
        <mxCell id="ttQ8q_DUYt6OM9fb_UbY-127" value="str" style="shape=partialRectangle;html=1;whiteSpace=wrap;connectable=0;strokeColor=inherit;overflow=hidden;fillColor=none;top=0;left=0;bottom=0;right=0;pointerEvents=1;" vertex="1" parent="ttQ8q_DUYt6OM9fb_UbY-126">
          <mxGeometry width="26" height="24" as="geometry">
            <mxRectangle width="26" height="24" as="alternateBounds" />
          </mxGeometry>
        </mxCell>
        <mxCell id="ttQ8q_DUYt6OM9fb_UbY-128" value="Name" style="shape=partialRectangle;html=1;whiteSpace=wrap;connectable=0;strokeColor=inherit;overflow=hidden;fillColor=none;top=0;left=0;bottom=0;right=0;pointerEvents=1;" vertex="1" parent="ttQ8q_DUYt6OM9fb_UbY-126">
          <mxGeometry x="26" width="114" height="24" as="geometry">
            <mxRectangle width="114" height="24" as="alternateBounds" />
          </mxGeometry>
        </mxCell>
        <mxCell id="ttQ8q_DUYt6OM9fb_UbY-132" value="" style="shape=tableRow;horizontal=0;startSize=0;swimlaneHead=0;swimlaneBody=0;strokeColor=inherit;top=0;left=0;bottom=0;right=0;collapsible=0;dropTarget=0;fillColor=none;points=[[0,0.5],[1,0.5]];portConstraint=eastwest;" vertex="1" parent="ttQ8q_DUYt6OM9fb_UbY-125">
          <mxGeometry y="24" width="140" height="24" as="geometry" />
        </mxCell>
        <mxCell id="ttQ8q_DUYt6OM9fb_UbY-133" value="str" style="shape=partialRectangle;html=1;whiteSpace=wrap;connectable=0;strokeColor=inherit;overflow=hidden;fillColor=none;top=0;left=0;bottom=0;right=0;pointerEvents=1;" vertex="1" parent="ttQ8q_DUYt6OM9fb_UbY-132">
          <mxGeometry width="26" height="24" as="geometry">
            <mxRectangle width="26" height="24" as="alternateBounds" />
          </mxGeometry>
        </mxCell>
        <mxCell id="ttQ8q_DUYt6OM9fb_UbY-134" value="Return annotation" style="shape=partialRectangle;html=1;whiteSpace=wrap;connectable=0;strokeColor=inherit;overflow=hidden;fillColor=none;top=0;left=0;bottom=0;right=0;pointerEvents=1;" vertex="1" parent="ttQ8q_DUYt6OM9fb_UbY-132">
          <mxGeometry x="26" width="114" height="24" as="geometry">
            <mxRectangle width="114" height="24" as="alternateBounds" />
          </mxGeometry>
        </mxCell>
        <mxCell id="ttQ8q_DUYt6OM9fb_UbY-135" style="edgeStyle=orthogonalEdgeStyle;rounded=0;orthogonalLoop=1;jettySize=auto;html=1;dashed=1;" edge="1" parent="1" source="ttQ8q_DUYt6OM9fb_UbY-126">
          <mxGeometry relative="1" as="geometry">
            <mxPoint x="827" y="156" as="targetPoint" />
          </mxGeometry>
        </mxCell>
        <mxCell id="ttQ8q_DUYt6OM9fb_UbY-140" value="arguments" style="edgeLabel;html=1;align=center;verticalAlign=middle;resizable=0;points=[];" vertex="1" connectable="0" parent="ttQ8q_DUYt6OM9fb_UbY-135">
          <mxGeometry x="0.0527" y="-1" relative="1" as="geometry">
            <mxPoint y="1" as="offset" />
          </mxGeometry>
        </mxCell>
        <mxCell id="ttQ8q_DUYt6OM9fb_UbY-136" value="1" style="text;align=center;fontStyle=1;verticalAlign=middle;spacingLeft=3;spacingRight=3;strokeColor=none;rotatable=0;points=[[0,0.5],[1,0.5]];portConstraint=eastwest;html=1;fontSize=10;" vertex="1" parent="1">
          <mxGeometry x="900" y="10" width="10" height="10" as="geometry" />
        </mxCell>
        <mxCell id="ttQ8q_DUYt6OM9fb_UbY-137" value="*" style="text;align=center;fontStyle=1;verticalAlign=middle;spacingLeft=3;spacingRight=3;strokeColor=none;rotatable=0;points=[[0,0.5],[1,0.5]];portConstraint=eastwest;html=1;" vertex="1" parent="1">
          <mxGeometry x="827" y="130" width="10" height="10" as="geometry" />
        </mxCell>
        <mxCell id="ttQ8q_DUYt6OM9fb_UbY-141" style="edgeStyle=orthogonalEdgeStyle;rounded=0;orthogonalLoop=1;jettySize=auto;html=1;dashed=1;" edge="1" parent="1">
          <mxGeometry relative="1" as="geometry">
            <mxPoint x="1000" y="60" as="targetPoint" />
            <mxPoint x="658" y="341" as="sourcePoint" />
            <Array as="points">
              <mxPoint x="658" y="342" />
              <mxPoint x="1001" y="342" />
            </Array>
          </mxGeometry>
        </mxCell>
        <mxCell id="ttQ8q_DUYt6OM9fb_UbY-142" value="functions" style="edgeLabel;html=1;align=center;verticalAlign=middle;resizable=0;points=[];" vertex="1" connectable="0" parent="ttQ8q_DUYt6OM9fb_UbY-141">
          <mxGeometry x="-0.4873" y="2" relative="1" as="geometry">
            <mxPoint x="1" as="offset" />
          </mxGeometry>
        </mxCell>
        <mxCell id="ttQ8q_DUYt6OM9fb_UbY-143" value="1" style="text;align=center;fontStyle=1;verticalAlign=middle;spacingLeft=3;spacingRight=3;strokeColor=none;rotatable=0;points=[[0,0.5],[1,0.5]];portConstraint=eastwest;html=1;fontSize=10;" vertex="1" parent="1">
          <mxGeometry x="658" y="328" width="10" height="10" as="geometry" />
        </mxCell>
        <mxCell id="ttQ8q_DUYt6OM9fb_UbY-144" value="*" style="text;align=center;fontStyle=1;verticalAlign=middle;spacingLeft=3;spacingRight=3;strokeColor=none;rotatable=0;points=[[0,0.5],[1,0.5]];portConstraint=eastwest;html=1;" vertex="1" parent="1">
          <mxGeometry x="985" y="328" width="10" height="10" as="geometry" />
        </mxCell>
        <mxCell id="ttQ8q_DUYt6OM9fb_UbY-163" style="edgeStyle=orthogonalEdgeStyle;rounded=0;orthogonalLoop=1;jettySize=auto;html=1;entryX=0.25;entryY=0;entryDx=0;entryDy=0;dashed=1;" edge="1" parent="1" source="ttQ8q_DUYt6OM9fb_UbY-145" target="ttQ8q_DUYt6OM9fb_UbY-78">
          <mxGeometry relative="1" as="geometry">
            <Array as="points">
              <mxPoint x="990" y="-290" />
              <mxPoint x="776" y="-290" />
            </Array>
          </mxGeometry>
        </mxCell>
        <mxCell id="ttQ8q_DUYt6OM9fb_UbY-167" value="class attributes&lt;div&gt;instance attributes&lt;/div&gt;" style="edgeLabel;html=1;align=center;verticalAlign=middle;resizable=0;points=[];" vertex="1" connectable="0" parent="ttQ8q_DUYt6OM9fb_UbY-163">
          <mxGeometry x="-0.48" y="-3" relative="1" as="geometry">
            <mxPoint x="-12" as="offset" />
          </mxGeometry>
        </mxCell>
        <mxCell id="ttQ8q_DUYt6OM9fb_UbY-145" value="Class" style="swimlane;fontStyle=2;childLayout=stackLayout;horizontal=1;startSize=26;fillColor=#e1d5e7;horizontalStack=0;resizeParent=1;resizeParentMax=0;resizeLast=0;collapsible=1;marginBottom=0;whiteSpace=wrap;html=1;strokeColor=#9673a6;" vertex="1" parent="1">
          <mxGeometry x="920" y="-200" width="140" height="50" as="geometry" />
        </mxCell>
        <mxCell id="ttQ8q_DUYt6OM9fb_UbY-146" value="" style="shape=table;startSize=0;container=1;collapsible=0;childLayout=tableLayout;" vertex="1" parent="ttQ8q_DUYt6OM9fb_UbY-145">
          <mxGeometry y="26" width="140" height="24" as="geometry" />
        </mxCell>
        <mxCell id="ttQ8q_DUYt6OM9fb_UbY-147" value="" style="shape=tableRow;horizontal=0;startSize=0;swimlaneHead=0;swimlaneBody=0;strokeColor=inherit;top=0;left=0;bottom=0;right=0;collapsible=0;dropTarget=0;fillColor=none;points=[[0,0.5],[1,0.5]];portConstraint=eastwest;" vertex="1" parent="ttQ8q_DUYt6OM9fb_UbY-146">
          <mxGeometry width="140" height="24" as="geometry" />
        </mxCell>
        <mxCell id="ttQ8q_DUYt6OM9fb_UbY-148" value="str" style="shape=partialRectangle;html=1;whiteSpace=wrap;connectable=0;strokeColor=inherit;overflow=hidden;fillColor=none;top=0;left=0;bottom=0;right=0;pointerEvents=1;" vertex="1" parent="ttQ8q_DUYt6OM9fb_UbY-147">
          <mxGeometry width="26" height="24" as="geometry">
            <mxRectangle width="26" height="24" as="alternateBounds" />
          </mxGeometry>
        </mxCell>
        <mxCell id="ttQ8q_DUYt6OM9fb_UbY-149" value="Name" style="shape=partialRectangle;html=1;whiteSpace=wrap;connectable=0;strokeColor=inherit;overflow=hidden;fillColor=none;top=0;left=0;bottom=0;right=0;pointerEvents=1;" vertex="1" parent="ttQ8q_DUYt6OM9fb_UbY-147">
          <mxGeometry x="26" width="114" height="24" as="geometry">
            <mxRectangle width="114" height="24" as="alternateBounds" />
          </mxGeometry>
        </mxCell>
        <mxCell id="ttQ8q_DUYt6OM9fb_UbY-153" style="edgeStyle=orthogonalEdgeStyle;rounded=0;orthogonalLoop=1;jettySize=auto;html=1;entryX=0;entryY=0.25;entryDx=0;entryDy=0;dashed=1;" edge="1" parent="ttQ8q_DUYt6OM9fb_UbY-145" source="ttQ8q_DUYt6OM9fb_UbY-147" target="ttQ8q_DUYt6OM9fb_UbY-145">
          <mxGeometry relative="1" as="geometry">
            <Array as="points">
              <mxPoint x="-50" y="38" />
              <mxPoint x="-50" y="12" />
            </Array>
          </mxGeometry>
        </mxCell>
        <mxCell id="ttQ8q_DUYt6OM9fb_UbY-154" value="superclasses" style="edgeLabel;html=1;align=center;verticalAlign=middle;resizable=0;points=[];" vertex="1" connectable="0" parent="ttQ8q_DUYt6OM9fb_UbY-153">
          <mxGeometry x="-0.0445" y="1" relative="1" as="geometry">
            <mxPoint y="-3" as="offset" />
          </mxGeometry>
        </mxCell>
        <mxCell id="ttQ8q_DUYt6OM9fb_UbY-155" style="edgeStyle=orthogonalEdgeStyle;rounded=0;orthogonalLoop=1;jettySize=auto;html=1;entryX=0.5;entryY=0;entryDx=0;entryDy=0;dashed=1;" edge="1" parent="1" source="ttQ8q_DUYt6OM9fb_UbY-146" target="ttQ8q_DUYt6OM9fb_UbY-124">
          <mxGeometry relative="1" as="geometry" />
        </mxCell>
        <mxCell id="ttQ8q_DUYt6OM9fb_UbY-156" value="methods" style="edgeLabel;html=1;align=center;verticalAlign=middle;resizable=0;points=[];" vertex="1" connectable="0" parent="ttQ8q_DUYt6OM9fb_UbY-155">
          <mxGeometry x="-0.1324" y="3" relative="1" as="geometry">
            <mxPoint as="offset" />
          </mxGeometry>
        </mxCell>
        <mxCell id="ttQ8q_DUYt6OM9fb_UbY-157" value="1" style="text;align=center;fontStyle=1;verticalAlign=middle;spacingLeft=3;spacingRight=3;strokeColor=none;rotatable=0;points=[[0,0.5],[1,0.5]];portConstraint=eastwest;html=1;fontSize=10;" vertex="1" parent="1">
          <mxGeometry x="902" y="-174" width="10" height="10" as="geometry" />
        </mxCell>
        <mxCell id="ttQ8q_DUYt6OM9fb_UbY-160" value="*" style="text;align=center;fontStyle=1;verticalAlign=middle;spacingLeft=3;spacingRight=3;strokeColor=none;rotatable=0;points=[[0,0.5],[1,0.5]];portConstraint=eastwest;html=1;" vertex="1" parent="1">
          <mxGeometry x="901" y="-200" width="10" height="10" as="geometry" />
        </mxCell>
        <mxCell id="ttQ8q_DUYt6OM9fb_UbY-161" value="1" style="text;align=center;fontStyle=1;verticalAlign=middle;spacingLeft=3;spacingRight=3;strokeColor=none;rotatable=0;points=[[0,0.5],[1,0.5]];portConstraint=eastwest;html=1;fontSize=10;" vertex="1" parent="1">
          <mxGeometry x="991" y="-146" width="10" height="10" as="geometry" />
        </mxCell>
        <mxCell id="ttQ8q_DUYt6OM9fb_UbY-162" value="*" style="text;align=center;fontStyle=1;verticalAlign=middle;spacingLeft=3;spacingRight=3;strokeColor=none;rotatable=0;points=[[0,0.5],[1,0.5]];portConstraint=eastwest;html=1;" vertex="1" parent="1">
          <mxGeometry x="993" y="-40" width="10" height="10" as="geometry" />
        </mxCell>
        <mxCell id="ttQ8q_DUYt6OM9fb_UbY-164" value="*" style="text;align=center;fontStyle=1;verticalAlign=middle;spacingLeft=3;spacingRight=3;strokeColor=none;rotatable=0;points=[[0,0.5],[1,0.5]];portConstraint=eastwest;html=1;" vertex="1" parent="1">
          <mxGeometry x="780" y="-300" width="10" height="10" as="geometry" />
        </mxCell>
        <mxCell id="ttQ8q_DUYt6OM9fb_UbY-165" value="2" style="text;align=center;fontStyle=1;verticalAlign=middle;spacingLeft=3;spacingRight=3;strokeColor=none;rotatable=0;points=[[0,0.5],[1,0.5]];portConstraint=eastwest;html=1;fontSize=10;" vertex="1" parent="1">
          <mxGeometry x="976" y="-303" width="10" height="10" as="geometry" />
        </mxCell>
        <mxCell id="ttQ8q_DUYt6OM9fb_UbY-169" style="edgeStyle=orthogonalEdgeStyle;rounded=0;orthogonalLoop=1;jettySize=auto;html=1;exitX=1;exitY=0.5;exitDx=0;exitDy=0;dashed=1;" edge="1" parent="1">
          <mxGeometry relative="1" as="geometry">
            <mxPoint x="658" y="361" as="sourcePoint" />
            <mxPoint x="1060" y="-177" as="targetPoint" />
            <Array as="points">
              <mxPoint x="658" y="363" />
              <mxPoint x="1160" y="363" />
              <mxPoint x="1160" y="-177" />
              <mxPoint x="1060" y="-177" />
            </Array>
          </mxGeometry>
        </mxCell>
        <mxCell id="ttQ8q_DUYt6OM9fb_UbY-172" value="classes" style="edgeLabel;html=1;align=center;verticalAlign=middle;resizable=0;points=[];" vertex="1" connectable="0" parent="ttQ8q_DUYt6OM9fb_UbY-169">
          <mxGeometry x="-0.6999" y="1" relative="1" as="geometry">
            <mxPoint x="-7" as="offset" />
          </mxGeometry>
        </mxCell>
        <mxCell id="ttQ8q_DUYt6OM9fb_UbY-173" value="1" style="text;align=center;fontStyle=1;verticalAlign=middle;spacingLeft=3;spacingRight=3;strokeColor=none;rotatable=0;points=[[0,0.5],[1,0.5]];portConstraint=eastwest;html=1;fontSize=10;" vertex="1" parent="1">
          <mxGeometry x="660" y="351" width="10" height="10" as="geometry" />
        </mxCell>
        <mxCell id="ttQ8q_DUYt6OM9fb_UbY-174" value="*" style="text;align=center;fontStyle=1;verticalAlign=middle;spacingLeft=3;spacingRight=3;strokeColor=none;rotatable=0;points=[[0,0.5],[1,0.5]];portConstraint=eastwest;html=1;" vertex="1" parent="1">
          <mxGeometry x="1148" y="351" width="10" height="10" as="geometry" />
        </mxCell>
      </root>
    </mxGraphModel>
  </diagram>
</mxfile>
